<?xml version="1.0" encoding="iso-8859-1"?>
<!-- Generator: Adobe Illustrator 19.0.0, SVG Export Plug-In . SVG Version: 6.00 Build 0)  -->
<svg version="1.1" id="Capa_1" xmlns="http://www.w3.org/2000/svg" xmlns:xlink="http://www.w3.org/1999/xlink" x="0px" y="0px"
	 viewBox="0 0 512 512" style="enable-background:new 0 0 512 512;" xml:space="preserve">
<g>
	<g>
		<path d="M418.645,118.615C378.757,78.645,326.795,55.179,271,51.603V30h22c8.284,0,15-6.716,15-15s-6.716-15-15-15h-74
			c-8.284,0-15,6.716-15,15s6.716,15,15,15h22v21.603c-38.257,2.452-74.708,14.257-106.703,34.324l-14.249-14.278
			c-6.935-6.949-16.16-10.775-25.977-10.775c-9.817,0-19.042,3.827-25.976,10.775L46.424,93.367
			c-14.265,14.293-14.265,37.551,0,51.845l14.346,14.376c-22.643,36.231-34.769,78.163-34.769,121.966
			c0,61.548,23.92,119.415,67.354,162.939C136.797,488.025,194.559,512,256,512s119.203-23.975,162.645-67.507
			c43.434-43.524,67.354-101.391,67.354-162.939S462.079,162.139,418.645,118.615z M67.659,114.559l21.672-21.717
			c1.708-1.711,3.703-1.967,4.741-1.967c1.038,0,3.034,0.255,4.742,1.967l10.87,10.892c-5.637,4.673-11.089,9.632-16.328,14.882
			c-5.224,5.235-10.159,10.682-14.81,16.314l-10.887-10.909C65.055,121.412,65.055,117.167,67.659,114.559z M256,482
			c-110.28,0-199.999-89.92-199.999-200.446S145.72,81.108,256,81.108s199.999,89.919,199.999,200.446S366.28,482,256,482z"/>
	</g>
</g>
<g>
	<g>
		<path d="M256,109.226c-94.842,0-172.001,77.306-172.001,172.328S161.158,453.882,256,453.882s172.001-77.306,172.001-172.328
			S350.842,109.226,256,109.226z M271,423.088v-17.533c0-8.284-6.716-15-15-15s-15,6.716-15,15v17.533
			c-66.356-7.015-119.23-60.021-126.213-126.534H132c8.284,0,15-6.716,15-15s-6.716-15-15-15h-17.212
			C121.77,200.041,174.644,147.035,241,140.02v17.533c0,8.284,6.716,15,15,15s15-6.716,15-15V140.02
			c66.356,7.015,119.23,60.021,126.213,126.534H380c-8.284,0-15,6.716-15,15s6.716,15,15,15h17.212
			C390.23,363.067,337.356,416.073,271,423.088z"/>
	</g>
</g>
<g>
	<g>
		<path d="M293,272.897h-21.162V212.23c0-8.284-6.716-15-15-15s-15,6.716-15,15v75.667c0,8.284,6.716,15,15,15H293
			c8.284,0,15-6.716,15-15S301.284,272.897,293,272.897z"/>
	</g>
</g>
<g>
</g>
<g>
</g>
<g>
</g>
<g>
</g>
<g>
</g>
<g>
</g>
<g>
</g>
<g>
</g>
<g>
</g>
<g>
</g>
<g>
</g>
<g>
</g>
<g>
</g>
<g>
</g>
<g>
</g>
</svg>
