<svg id="Capa_1" enable-background="new 0 0 506.424 506.424" height="512" viewBox="0 0 506.424 506.424" width="512" xmlns="http://www.w3.org/2000/svg"><g><path d="m476.426 137.061c-.098 8.815-1.332 17.371-3.558 25.531l-130.293-128.714c8.534-2.426 17.515-3.777 26.788-3.88l-.332-29.998c-72.463.804-131.208 60.289-130.953 132.566l.116 105.627-105.592-.116c-71.297-.437-131.79 57.701-132.602 130.953l29.998.332c.098-8.826 1.323-17.389 3.533-25.553l130.292 128.711c-8.53 2.441-17.502 3.803-26.763 3.905l.333 29.998c72.122-.8 130.869-60.253 130.956-132.565l-.121-105.629 105.665.119c72.276-.086 131.729-58.832 132.53-130.954zm-208.232 101.166-.065-59.329 60.127 59.397zm-135.661 29.85 2.902.003 102.909 101.661c-.183 2.286 1.327 18.893-6.431 39.676l-136.21-134.559c11.778-4.545 23.979-6.781 36.83-6.781zm60.276 190.907-146.159-144.384c6.023-9.213 13.488-17.396 22.061-24.237l148.03 146.233c-6.734 8.671-14.822 16.239-23.932 22.388zm45.487-131.461-60.125-59.396 60.057.068zm132.697-89.178-102.91-101.662c.198-2.596-1.392-19.025 6.318-39.785l136.217 134.566c-11.422 4.428-23.809 6.869-36.725 6.885zm66.608-22.397-148.036-146.241c6.735-8.657 14.837-16.212 23.97-22.347l146.161 144.389c-6.037 9.189-13.513 17.361-22.095 24.199z"/></g></svg>