<svg id="Capa_1" enable-background="new 0 0 512 512" viewBox="0 0 512 512" xmlns="http://www.w3.org/2000/svg"><g><path d="m437.02 74.98c-48.353-48.351-112.64-74.98-181.02-74.98s-132.667 26.629-181.02 74.98c-48.351 48.353-74.98 112.64-74.98 181.02s26.629 132.667 74.98 181.02c48.353 48.351 112.64 74.98 181.02 74.98s132.667-26.629 181.02-74.98c48.351-48.353 74.98-112.64 74.98-181.02s-26.629-132.667-74.98-181.02zm-181.02 407.02c-124.617 0-226-101.383-226-226s101.383-226 226-226 226 101.383 226 226-101.383 226-226 226z"/><path d="m420.266 200.793c-1.764-5.43-6.458-9.388-12.108-10.209l-95.844-13.927-42.862-86.849c-2.527-5.12-7.742-8.361-13.451-8.361s-10.924 3.242-13.451 8.361l-42.862 86.849-95.844 13.927c-5.65.821-10.344 4.779-12.108 10.209-1.765 5.43-.293 11.391 3.795 15.376l69.353 67.603-16.372 95.456c-.965 5.627 1.348 11.315 5.967 14.671 4.62 3.356 10.743 3.799 15.797 1.142l85.724-45.068 85.725 45.068c2.194 1.154 4.591 1.723 6.979 1.723 3.11 0 6.205-.966 8.818-2.865 4.619-3.356 6.933-9.043 5.967-14.671l-16.372-95.456 69.353-67.603c4.089-3.984 5.56-9.945 3.796-15.376zm-99.736 67.001c-3.535 3.446-5.148 8.411-4.314 13.277l12.567 73.272-65.803-34.593c-2.185-1.149-4.583-1.723-6.98-1.723s-4.795.574-6.98 1.723l-65.803 34.594 12.567-73.272c.834-4.866-.779-9.831-4.314-13.277l-53.236-51.892 73.57-10.69c4.885-.71 9.109-3.779 11.294-8.206l32.902-66.667 32.901 66.666c2.185 4.427 6.409 7.496 11.294 8.206l73.57 10.69z"/></g></svg>